<svg width="56" height="37" viewBox="0 0 56 37" fill="none" xmlns="http://www.w3.org/2000/svg">
<path fill-rule="evenodd" clip-rule="evenodd" d="M18.8394 1.40878C12.0164 2.3835 0 6.81736 0 15.6033C0 22.9137 9.67745 27.0518 9.67745 27.0518V22.559C4.6435 20.2094 -0.95303 13.1012 12.3275 7.3443V23.3357V28.0875C13.6271 28.8997 18.3521 30.6457 26.1498 30.6502C26.256 30.6503 26.2141 32.7828 26.179 34.5695C26.1637 35.3453 26.1498 36.056 26.1498 36.4985H32.4854V26.4856C32.4854 26.4856 30.4036 26.8069 29.0739 26.7514V0.684922C26.5762 0.259056 22.784 0.678508 22.784 0.806958C22.784 2.75691 22.7078 26.3931 22.7078 26.3931C22.7078 26.3931 18.8394 26.2256 18.8394 25.7768V1.40878ZM31.2975 0.684209V4.54071C33.3752 4.54071 34.8227 4.92146 36.171 5.37503V30.0475C41.3086 29.418 51.3096 25.6918 54.2337 20.0262C58.242 12.2601 50.3958 5.74055 46.6188 4.94859L46.832 9.45665C50.1623 11.5279 54.3251 16.4015 47.1366 21.5797C45.1269 23.0273 43.9347 23.4187 43.2257 23.6514C43.0913 23.6955 42.9742 23.7339 42.8722 23.7728V7.32446L44.9435 8.23825V3.79111C42.791 2.75548 37.0483 0.684209 31.2975 0.684209Z" fill="white"/>
</svg>
